<svg width="48" height="48" viewBox="0 0 48 48" fill="none" xmlns="http://www.w3.org/2000/svg">
<g clip-path="url(#clip0_8_73)">
<mask id="mask0_8_73" style="mask-type:luminance" maskUnits="userSpaceOnUse" x="0" y="0" width="48" height="48">
<path d="M0.273926 0.127441H47.9683V47.8218H0.273926V0.127441Z" fill="white"/>
</mask>
<g mask="url(#mask0_8_73)">
<mask id="mask1_8_73" style="mask-type:luminance" maskUnits="userSpaceOnUse" x="0" y="0" width="49" height="48">
<path d="M13.1227 0.127441H35.1831C35.6035 0.127441 36.0239 0.148142 36.4428 0.189543C36.8616 0.230944 37.2771 0.293046 37.6895 0.374257C38.102 0.457059 38.5095 0.558971 38.9125 0.67999C39.3154 0.802601 39.712 0.94432 40.1002 1.10515C40.4888 1.26598 40.8679 1.44591 41.2406 1.64496C41.6115 1.84241 41.9713 2.05897 42.3217 2.29305C42.6705 2.52712 43.0081 2.77712 43.3346 3.04305C43.6593 3.31055 43.9699 3.5924 44.2677 3.89019C44.5655 4.18794 44.847 4.50006 45.1146 4.8249C45.3821 5.14974 45.6322 5.4873 45.8664 5.83764C46.1002 6.18795 46.3155 6.54783 46.5145 6.91883C46.7117 7.28987 46.8918 7.67045 47.0526 8.05897C47.2134 8.4475 47.3553 8.84241 47.4779 9.24527C47.6005 9.64814 47.7023 10.0558 47.7836 10.4682C47.8662 10.8822 47.9285 11.2978 47.9698 11.7166C48.0111 12.1354 48.0303 12.5542 48.0303 12.9746V35.0367C48.0303 35.4571 48.0111 35.8774 47.9698 36.2963C47.9285 36.7152 47.8662 37.1306 47.7836 37.5431C47.7023 37.9555 47.6005 38.3631 47.4779 38.766C47.3553 39.169 47.2134 39.5637 47.0526 39.9523C46.8918 40.3408 46.7117 40.7215 46.5145 41.0923C46.3155 41.4635 46.1002 41.8249 45.8664 42.1737C45.6322 42.5241 45.3821 42.8616 45.1146 43.1863C44.847 43.5113 44.5655 43.8234 44.2677 44.1212C43.9699 44.4187 43.6593 44.7006 43.3346 44.9681C43.0081 45.2341 42.6705 45.4842 42.3217 45.7181C41.9713 45.9523 41.6115 46.1687 41.2406 46.3662C40.8679 46.5652 40.4888 46.7453 40.1002 46.9061C39.712 47.067 39.3154 47.2085 38.9125 47.3314C38.5095 47.4522 38.102 47.5543 37.6895 47.6371C37.2771 47.7197 36.8616 47.7802 36.4428 47.8218C36.0239 47.8631 35.6035 47.8839 35.1831 47.8839H13.1227C12.7023 47.8839 12.2819 47.8631 11.8631 47.8218C11.4443 47.7802 11.0287 47.7197 10.6163 47.6371C10.2039 47.5543 9.79622 47.4522 9.39336 47.3314C8.99049 47.2085 8.59399 47.067 8.20547 46.9061C7.81691 46.7453 7.43634 46.5652 7.06533 46.3662C6.69432 46.1687 6.33444 45.9523 5.98411 45.7181C5.63539 45.4842 5.2978 45.2341 4.97137 44.9681C4.64653 44.7006 4.33443 44.4187 4.03827 44.1212C3.74049 43.8234 3.45863 43.5113 3.19112 43.1863C2.92361 42.8616 2.67361 42.5241 2.43953 42.1737C2.20545 41.8249 1.99049 41.4635 1.79144 41.0923C1.59399 40.7215 1.41405 40.3408 1.25323 39.9523C1.0924 39.5637 0.950676 39.169 0.828065 38.766C0.705454 38.3631 0.603545 37.9555 0.522333 37.5431C0.439531 37.1306 0.377428 36.7152 0.336029 36.2963C0.294626 35.8774 0.273926 35.4571 0.273926 35.0367V12.9746C0.273926 12.5542 0.294626 12.1354 0.336029 11.7166C0.377428 11.2978 0.439531 10.8822 0.522333 10.4682C0.603545 10.0558 0.705454 9.64814 0.828065 9.24527C0.950676 8.84241 1.0924 8.4475 1.25323 8.05897C1.41405 7.67045 1.59399 7.28987 1.79144 6.91883C1.99049 6.54783 2.20545 6.18795 2.43953 5.83764C2.67361 5.4873 2.92361 5.14974 3.19112 4.8249C3.45863 4.50006 3.74049 4.18794 4.03827 3.89019C4.33443 3.5924 4.64653 3.31055 4.97137 3.04305C5.2978 2.77712 5.63539 2.52712 5.98411 2.29305C6.33444 2.05897 6.69432 1.84241 7.06533 1.64496C7.43634 1.44591 7.81691 1.26598 8.20547 1.10515C8.59399 0.94432 8.99049 0.802601 9.39336 0.67999C9.79622 0.558971 10.2039 0.457059 10.6163 0.374257C11.0287 0.293046 11.4443 0.230944 11.8631 0.189543C12.2819 0.148142 12.7023 0.127441 13.1227 0.127441Z" fill="white"/>
</mask>
<g mask="url(#mask1_8_73)">
<path d="M0.273926 47.8218H47.9683V0.127441H0.273926V47.8218Z" fill="#D05E25"/>
<path d="M0.273926 47.8218H47.9683V0.127441H0.273926V47.8218Z" fill="url(#paint0_linear_8_73)" fill-opacity="0.16"/>
</g>
</g>
<mask id="mask2_8_73" style="mask-type:luminance" maskUnits="userSpaceOnUse" x="11" y="17" width="26" height="24">
<path d="M11.312 17.8345H36.586V40.2451H11.312V17.8345Z" fill="white"/>
</mask>
<g mask="url(#mask2_8_73)">
<path d="M23.444 40.0017C20.0682 40.0017 16.7243 38.6464 14.4727 36.2626C11.5523 33.1689 10.6032 28.5111 12.1112 24.672C13.6574 20.7373 18.315 17.7166 22.5061 17.9475C22.7736 17.9618 22.9774 18.1911 22.9631 18.457C22.9488 18.7245 22.7147 18.9363 22.4536 18.914C18.7226 18.7166 14.393 21.5095 13.0124 25.0271C11.6383 28.5239 12.5077 32.7724 15.1765 35.5989C17.7402 38.3122 21.8532 39.5734 25.659 38.817C29.3612 38.078 32.6654 35.5493 34.4964 32.0557C35.1223 30.86 35.3485 29.9108 35.2066 29.0717C35.0587 28.1974 34.3118 27.3089 33.3995 27.3615C32.7082 27.4076 32.0986 27.9538 31.4535 28.5334C30.6414 29.2612 29.7211 30.0876 28.5172 29.8232C27.7418 29.6544 27.1765 28.9586 27.0761 28.0526C26.9742 27.1465 27.3739 26.3439 28.0937 26.0096C28.3373 25.8965 28.6255 26.0016 28.737 26.2436C28.85 26.4857 28.745 26.7739 28.5029 26.8869C28.0937 27.078 27.9966 27.5764 28.0364 27.9459C28.0778 28.3153 28.2832 28.7819 28.7243 28.8774C29.4456 29.0319 30.0761 28.4681 30.8071 27.8137C31.5125 27.1815 32.3101 26.465 33.334 26.3949C34.804 26.2818 35.9441 27.6242 36.1605 28.9092C36.3388 29.9697 36.0826 31.1113 35.3531 32.5049C33.3881 36.2547 29.8341 38.9699 25.8484 39.766C25.0555 39.9234 24.2481 40.0017 23.444 40.0017Z" fill="#F6F6F6"/>
</g>
<path d="M29.7835 25.094C29.6497 25.094 29.5176 25.0383 29.422 24.93C29.2453 24.731 29.2628 24.4252 29.4634 24.2469C30.2628 23.5383 30.7564 22.938 31.0637 22.3026C31.4333 21.5383 31.4889 20.7023 31.2165 20.0638C30.9221 19.3743 30.1959 18.8042 29.2739 18.5399C28.6465 18.3584 27.1433 18.274 25.1434 18.3058C24.8838 18.3392 24.6577 18.0972 24.6529 17.8297C24.6481 17.5622 24.8615 17.3424 25.129 17.3377C26.3567 17.3186 28.5622 17.3281 29.5415 17.6099C30.7579 17.9587 31.6929 18.7151 32.1068 19.6832C32.4936 20.5877 32.4315 21.6959 31.9347 22.723C31.4681 23.6927 30.7118 24.4348 30.1051 24.9714C30.0128 25.0526 29.8981 25.094 29.7835 25.094Z" fill="#F6F6F6"/>
<path d="M31.7136 28.0622C31.5527 28.0622 31.3935 27.9826 31.3027 27.8345C28.513 23.3791 25.6117 19.1784 22.4286 14.9953C22.2678 14.7819 22.3092 14.4778 22.5209 14.3169C22.7327 14.1545 23.0369 14.1959 23.1993 14.4093C26.3999 18.6163 29.3187 22.8409 32.1229 27.3217C32.2645 27.5479 32.196 27.8472 31.9701 27.9889C31.8903 28.0383 31.8013 28.0622 31.7136 28.0622Z" fill="#F6F6F6"/>
<path d="M30.4299 29.1768C30.2787 29.1768 30.1306 29.1068 30.035 28.9746C26.9856 24.7167 23.7022 20.5495 20.2802 16.5893C20.1051 16.3871 20.1274 16.0813 20.3296 15.9062C20.5318 15.731 20.8376 15.7549 21.0111 15.9555C24.4538 19.938 27.7548 24.1291 30.8218 28.4109C30.9777 28.6275 30.9282 28.93 30.7102 29.0861C30.6258 29.1466 30.5271 29.1768 30.4299 29.1768Z" fill="#F6F6F6"/>
<path d="M20.2771 16.5717C19.9395 16.5717 19.5988 16.5239 19.2628 16.4252C18.6513 16.2452 18.1927 16.0462 17.8217 15.793C16.9825 15.2245 16.4507 14.4076 16.3599 13.551C16.3042 13.0112 16.4204 12.5112 16.5335 12.0271C16.6004 11.7388 16.6625 11.4682 16.6864 11.2006C16.7644 10.3248 16.3902 9.5 15.6577 8.93791C15.4873 8.80574 15.4236 8.57644 15.5032 8.37579C15.5844 8.17358 15.7867 8.04936 16.0032 8.07324C17.1736 8.19587 18.3854 8.32165 19.5478 8.68791C20.8934 9.11306 21.9762 9.82007 22.6816 10.7325C23.551 11.8583 23.8169 13.2994 23.3743 14.4968C23.2835 14.742 23.1609 14.9777 23.0096 15.1974C22.4125 16.0701 21.3711 16.5717 20.2771 16.5717ZM17.1609 9.17834C17.5446 9.80414 17.7166 10.5303 17.6513 11.2866C17.6211 11.621 17.5462 11.9395 17.4746 12.2468C17.3759 12.6704 17.2835 13.0717 17.3233 13.4491C17.3822 14.0127 17.7724 14.5908 18.3647 14.9921C18.6497 15.1863 19.0223 15.3455 19.5351 15.4968C19.5351 15.4968 19.5351 15.4968 19.5367 15.4968C20.5638 15.7994 21.6641 15.4507 22.2118 14.6513C22.3169 14.4968 22.4029 14.3312 22.4666 14.1608C22.7899 13.2882 22.5733 12.1752 21.9156 11.3249C21.1784 10.3694 20.0621 9.86465 19.2564 9.60988C18.5844 9.3981 17.8743 9.27229 17.1609 9.17834Z" fill="#F6F6F6"/>
<mask id="mask3_8_73" style="mask-type:luminance" maskUnits="userSpaceOnUse" x="33" y="31" width="5" height="6">
<path d="M33.3247 31.2866H37.7817V36.5862H33.3247V31.2866Z" fill="white"/>
</mask>
<g mask="url(#mask3_8_73)">
<path d="M36.1384 36.2453C35.9473 36.2453 35.7531 36.2104 35.5666 36.137C35.0157 35.9187 34.6528 35.4522 34.4281 35.1196C34.363 35.0239 34.3009 34.9251 34.237 34.8282C34.0811 34.5812 33.9313 34.3488 33.7515 34.1657C33.5635 33.9746 33.5668 33.6689 33.7561 33.4808C33.9472 33.2946 34.2529 33.2962 34.4409 33.4857C34.6925 33.7422 34.8757 34.0287 35.0539 34.3075C35.1114 34.398 35.1686 34.4888 35.2291 34.5766C35.4728 34.9364 35.6926 35.1465 35.9219 35.2373C36.1274 35.3186 36.382 35.274 36.4649 35.1434C36.5621 34.9936 36.4997 34.6928 36.2912 34.2978C35.906 33.5686 35.5364 32.9794 34.8931 32.298C34.71 32.1035 34.7195 31.7962 34.9139 31.6131C35.108 31.43 35.4138 31.4395 35.5984 31.6339C36.3166 32.3949 36.7229 33.0446 37.1464 33.8456C37.2913 34.121 37.734 34.9572 37.28 35.6656C37.0427 36.0368 36.6034 36.2453 36.1384 36.2453Z" fill="#F6F6F6"/>
</g>
<path d="M19.7725 26.1464C19.6562 26.1464 19.5384 26.1385 19.4206 26.121C19.0909 26.0732 18.7741 25.9554 18.5049 25.7786C17.6005 25.1847 17.1881 24.1799 17.4779 23.2754C17.7486 22.4363 18.5241 21.9363 19.532 21.9824C20.5575 22.027 21.5368 22.6608 21.8616 23.492C22.0193 23.8933 22.1594 24.6942 21.333 25.5239C20.9333 25.9251 20.368 26.1464 19.7725 26.1464ZM19.4158 22.9474C18.903 22.9474 18.5272 23.1783 18.3998 23.5732C18.2693 23.9761 18.4158 24.5637 19.0352 24.9681C19.188 25.0684 19.3696 25.1353 19.5607 25.164C19.9715 25.2229 20.3887 25.1003 20.6467 24.8407C20.9826 24.5047 21.0877 24.1688 20.9603 23.8439C20.7756 23.3694 20.1292 22.9761 19.4906 22.949C19.4651 22.949 19.4397 22.9474 19.4158 22.9474Z" fill="#F6F6F6"/>
<path d="M16.9222 31.0525C16.8044 31.0525 16.6865 31.0446 16.5687 31.0269C16.2375 30.9776 15.9222 30.8596 15.6531 30.6829C14.7486 30.0907 14.3362 29.0859 14.6276 28.1814C14.8983 27.3423 15.6738 26.8327 16.6817 26.8884C17.7072 26.933 18.6865 27.5668 19.0098 28.3964C19.1674 28.7993 19.3076 29.5986 18.4811 30.4298C18.083 30.8312 17.5177 31.0525 16.9222 31.0525ZM16.1849 29.8741C16.3362 29.9744 16.5177 30.0413 16.7104 30.0699C17.118 30.1273 17.5368 30.0063 17.7948 29.7467C18.1308 29.4107 18.2359 29.0747 18.1085 28.7483C17.9238 28.2754 17.2789 27.8836 16.6403 27.855C16.0878 27.8423 15.6817 28.0636 15.548 28.4776C15.419 28.882 15.5655 29.4696 16.1849 29.8741Z" fill="#F6F6F6"/>
<path d="M18.7339 35.9473C18.6176 35.9473 18.4998 35.9378 18.382 35.9219C18.0508 35.8724 17.7339 35.7532 17.4664 35.578C16.5619 34.9855 16.1495 33.9793 16.4393 33.0765C16.71 32.2357 17.4902 31.7291 18.4934 31.7832C19.5189 31.8263 20.4982 32.4601 20.8231 33.2896C20.9807 33.6941 21.1208 34.4936 20.2944 35.323C19.8947 35.7244 19.3294 35.9473 18.7339 35.9473ZM17.9966 34.769C18.1479 34.8678 18.3294 34.9347 18.5221 34.9632C18.9313 35.0222 19.3501 34.9011 19.6081 34.6415C19.9425 34.304 20.0492 33.968 19.9218 33.6433C19.7355 33.1688 19.0906 32.7769 18.4536 32.75C17.9011 32.7325 17.4934 32.9585 17.3613 33.3724C17.2307 33.7754 17.3772 34.363 17.9966 34.769Z" fill="#F6F6F6"/>
<path d="M23.898 36.9619C23.7818 36.9619 23.6655 36.9539 23.5477 36.9365C23.2181 36.887 22.9028 36.7693 22.6337 36.5941C22.6321 36.5941 22.6321 36.5941 22.6321 36.5926C21.7276 36.0001 21.3152 34.9954 21.6066 34.0908C21.8773 33.25 22.6544 32.7565 23.6608 32.7978C24.6846 32.8409 25.6639 33.4762 25.9888 34.3057C26.1464 34.7086 26.2866 35.5081 25.4601 36.3391C25.0604 36.739 24.4936 36.9619 23.898 36.9619ZM23.1623 35.7836C23.3152 35.8823 23.4967 35.9508 23.6894 35.9793C24.0986 36.0383 24.5158 35.9157 24.7738 35.6561C25.1098 35.3201 25.2149 34.9826 25.0875 34.6576C24.9028 34.1831 24.2579 33.7914 23.6193 33.7645C23.0716 33.7453 22.6592 33.973 22.527 34.387C22.3964 34.79 22.5429 35.3776 23.1623 35.7836Z" fill="#F6F6F6"/>
<path d="M29.1622 35.3613C29.0459 35.3613 28.9297 35.3533 28.8119 35.3359C28.4807 35.2882 28.1638 35.1686 27.8962 34.9935C26.9918 34.4013 26.5794 33.3948 26.8708 32.492C27.1399 31.6512 27.9217 31.1449 28.9249 31.199C29.9488 31.2418 30.928 31.8756 31.253 32.7054C31.4107 33.1098 31.5508 33.909 30.7244 34.7388C30.3246 35.1399 29.7577 35.3613 29.1622 35.3613ZM28.4265 34.1845C28.5778 34.2832 28.7593 34.3502 28.952 34.3789C29.3644 34.4395 29.78 34.3153 30.038 34.0573C30.374 33.7198 30.479 33.3838 30.3517 33.0573C30.167 32.5843 29.522 32.1911 28.8835 32.1639C28.3294 32.1465 27.9233 32.3743 27.7912 32.7882C27.6606 33.1909 27.8071 33.7785 28.4265 34.1845Z" fill="#F6F6F6"/>
</g>
<defs>
<linearGradient id="paint0_linear_8_73" x1="24.1211" y1="0.127441" x2="24.1211" y2="47.8218" gradientUnits="userSpaceOnUse">
<stop stop-color="white"/>
<stop offset="1" stop-color="white" stop-opacity="0"/>
</linearGradient>
<clipPath id="clip0_8_73">
<rect width="48" height="48" fill="white"/>
</clipPath>
</defs>
</svg>
