<svg width="375" height="221" viewBox="0 0 375 221" fill="none" xmlns="http://www.w3.org/2000/svg">
<rect width="374.674" height="220.446" rx="24" fill="#D05E25"/>
<rect width="374.674" height="220.446" rx="24" fill="url(#paint0_linear_63_209)" fill-opacity="0.16"/>
<path d="M75.8916 63.831C71.1232 64.4315 66.3195 68.1049 64.5181 72.5201L63.7057 74.5687L63.5998 109.36C63.5291 131.86 63.6351 144.752 63.8823 145.812C64.7654 150.015 67.7324 153.794 71.5824 155.702L73.9489 156.867H109.8H145.651L147.7 155.914C151.797 153.971 155.117 149.838 156.036 145.458C156.318 144.152 156.424 133.449 156.424 110.384C156.424 81.4917 156.353 76.8646 155.859 74.7453C154.835 70.1888 151.408 66.2329 146.993 64.4315L144.945 63.6191L111.566 63.5838C93.199 63.5484 77.1631 63.6897 75.8916 63.831ZM127.461 100.177C127.461 120.31 127.39 124.266 126.895 126.562C125.518 133.308 121.809 138.218 116.299 140.655C106.303 145.07 94.9297 141.467 90.0554 132.319C88.6425 129.67 87.5476 125.396 87.5476 122.535V120.31H92.1394H96.7311V121.44C96.7664 124.372 98.3912 128.398 100.334 130.447C101.994 132.178 104.502 133.096 107.539 133.096C111.955 133.061 115.169 131.047 116.935 127.197L117.747 125.431L117.853 105.651L117.959 85.8715H112.237H106.55L106.727 83.8582C106.939 81.5976 108.069 79.2311 109.482 78.2068C111.425 76.7586 112.873 76.5467 120.326 76.5114H127.461V100.177Z" fill="white"/>
<path d="M195.207 79.231C195.101 94.0306 195.066 94.7724 194.359 96.1146C193.865 97.0683 193.158 97.7747 192.099 98.3045C188.213 100.283 184.116 98.1985 183.409 93.8894L183.162 92.4059H179.348C177.264 92.4059 175.462 92.5118 175.392 92.6531C175.109 93.2182 176.133 97.9513 176.875 99.3995C179.348 104.203 183.869 106.464 190.509 106.111C194.43 105.899 196.867 104.91 199.445 102.508C201.883 100.247 203.013 97.5628 203.437 93.1829C203.613 91.3109 203.719 83.9288 203.684 76.7939L203.649 63.7956H199.481H195.313L195.207 79.231Z" fill="white"/>
<path d="M245.469 71.637L245.504 75.6283L243.032 75.5576L240.559 75.4517L240.736 78.2067C240.807 79.6902 240.948 81.1384 241.054 81.3503C241.124 81.6682 241.937 81.8095 243.456 81.8095H245.752L245.681 90.3572C245.61 98.5518 245.646 99.011 246.387 100.353C248.295 103.885 251.297 105.51 256.454 105.757L259.88 105.934L259.986 102.508L260.092 99.1169H258.679C256.277 99.1169 254.653 98.4811 253.911 97.2449C253.275 96.2206 253.204 95.4082 253.204 88.9444V81.8095H256.383H259.597L259.492 78.7012L259.386 75.6283H256.277H253.204V71.637V67.681H249.284H245.398L245.469 71.637Z" fill="white"/>
<path d="M266.309 71.6017L266.45 75.5576L263.907 75.5223H261.399L261.575 78.2067C261.646 79.6902 261.787 81.1384 261.893 81.3503C261.964 81.6682 262.776 81.8095 264.331 81.8095H266.626V90.3572C266.626 98.2692 266.662 99.011 267.368 100.424C268.852 103.532 272.596 105.439 277.682 105.757L280.755 105.934V102.508V99.1169H279.66C277.929 99.1169 275.916 98.3752 275.033 97.4568C274.256 96.6091 274.22 96.3265 274.115 89.1916L273.973 81.8095H277.187H280.402V78.5953V75.4163L277.329 75.487L274.22 75.5576L274.115 71.637L274.009 67.681H270.088H266.203L266.309 71.6017Z" fill="white"/>
<path d="M294.53 74.7806C289.267 75.6989 284.994 79.6902 284.994 83.6815V84.9884H288.349C291.033 84.9884 291.705 84.8825 291.705 84.4939C291.705 83.6815 293.506 81.7389 294.777 81.2444C296.367 80.5733 299.405 80.6086 300.853 81.3857C302.513 82.198 303.396 83.5402 303.608 85.4829L303.82 87.1077H302.089C297.992 87.143 290.751 88.0967 288.949 88.8738C285.594 90.3219 283.793 93.183 283.828 96.9977C283.863 100.742 285.488 103.497 288.702 105.228C289.903 105.899 290.68 106.005 293.824 106.005C297.992 106.005 299.793 105.404 302.195 103.144C302.901 102.472 303.537 102.013 303.643 102.084C303.714 102.19 303.89 102.967 303.961 103.885L304.173 105.475H307.634H311.096L310.919 94.949C310.813 89.1917 310.566 83.7169 310.354 82.7985C309.612 79.3017 306.751 76.2641 303.219 75.2751C300.782 74.604 296.861 74.3567 294.53 74.7806ZM303.361 93.7128C302.901 98.022 300.5 100.177 296.12 100.177C292.835 100.177 291.351 99.011 291.351 96.4678C291.351 94.8431 292.764 93.3242 294.813 92.7944C296.226 92.4059 300.394 91.8407 302.478 91.7348L303.572 91.6995L303.361 93.7128Z" fill="white"/>
<path d="M218.837 75.0984C213.609 76.4053 208.876 81.4916 207.675 87.037C206.156 94.2426 209.583 101.483 216.011 104.662C218.484 105.899 218.978 106.005 222.334 106.111C225.301 106.252 226.431 106.111 228.409 105.51C233.142 104.097 236.709 100.494 238.369 95.5494C239.005 93.6774 239.111 92.6884 239.005 89.7214C238.899 86.4366 238.793 85.9421 237.557 83.5049C235.968 80.2553 233.248 77.6062 229.892 76.0168C227.844 75.0631 227.208 74.9218 223.888 74.8512C221.839 74.8159 219.578 74.9218 218.837 75.0984ZM225.442 81.5975C227.702 82.2686 229.186 83.5049 230.316 85.5888C232.435 89.4742 231.87 93.9953 228.868 96.9976C226.078 99.788 222.369 100.247 219.049 98.1985C216.576 96.6444 215.34 94.4898 215.128 91.1696C214.81 86.1893 217.283 82.4806 221.592 81.4209C223.217 81.0324 223.64 81.0677 225.442 81.5975Z" fill="white"/>
<path d="M176.91 134.791V155.278H180.796H184.681V141.114V126.985L186.306 129.387C194.183 140.902 202.624 153.194 203.295 154.112L204.143 155.278H207.852H211.525V134.791V114.305H207.463H203.401L203.331 128.01L203.225 141.75L193.865 128.01L184.504 114.305H180.725H176.91V134.791Z" fill="white"/>
<path d="M253.134 121.369L253.31 125.255H250.767H248.259V126.562C248.259 127.303 248.365 128.751 248.471 129.74L248.719 131.613H250.944H253.204V139.807C253.204 144.611 253.381 148.602 253.593 149.414C254.123 151.286 256.807 153.936 259.032 154.713C260.021 155.066 262.353 155.419 264.26 155.525L267.686 155.737V152.381V149.026L265.708 148.779C263.271 148.496 261.929 147.825 261.399 146.624C261.116 146.024 260.975 143.374 260.975 138.677V131.613H264.189H267.439L267.192 129.74C267.086 128.751 266.98 127.303 266.98 126.562V125.255H263.977H260.975V121.369V117.484H256.984H252.992L253.134 121.369Z" fill="white"/>
<path d="M228.197 124.937C224.241 125.714 219.72 129.069 217.777 132.601C213.397 140.655 216.435 150.474 224.559 154.501C227.208 155.808 227.243 155.808 231.658 155.808C236.003 155.808 236.144 155.772 238.546 154.607C241.654 153.052 244.409 150.368 245.752 147.472C251.509 135.357 241.336 122.323 228.197 124.937ZM235.049 132.072C239.818 134.544 241.301 141.573 237.946 146.13C235.932 148.849 231.729 149.98 228.621 148.602C226.431 147.613 225.442 146.695 224.418 144.681C222.086 140.019 223.711 134.509 228.126 132.213C229.786 131.33 230.352 131.224 232.047 131.365C233.142 131.471 234.484 131.789 235.049 132.072Z" fill="white"/>
<path d="M280.967 124.937C278.812 125.467 275.598 127.339 274.079 128.999C266.98 136.663 269.099 150.05 278.035 154.218C285.382 157.644 294.283 155.384 297.85 149.167C299.546 146.165 299.617 146.271 295.237 146.306C291.563 146.341 291.281 146.377 290.362 147.224C287.007 150.368 281.355 150.156 278.989 146.801C278.282 145.812 277.082 142.597 277.329 142.35C277.364 142.315 282.344 142.209 288.349 142.138L299.299 142.032L299.405 141.079C299.475 140.549 299.299 138.783 299.016 137.123C297.956 131.012 294.672 126.703 290.044 125.255C287.572 124.513 283.475 124.336 280.967 124.937ZM287.042 130.765C289.126 131.189 290.857 133.202 291.493 135.922L291.705 136.911H284.64C276.834 136.911 277.011 136.981 278.106 134.65C278.989 132.813 280.896 131.224 282.768 130.729C284.393 130.27 284.782 130.306 287.042 130.765Z" fill="white"/>
<defs>
<linearGradient id="paint0_linear_63_209" x1="187.337" y1="0" x2="187.337" y2="220.446" gradientUnits="userSpaceOnUse">
<stop stop-color="white"/>
<stop offset="1" stop-color="white" stop-opacity="0"/>
</linearGradient>
</defs>
</svg>
